<mxfile modified="2019-10-21T01:37:04.861Z" host="www.draw.io" agent="Mozilla/5.0 (Windows NT 10.0; Win64; x64) AppleWebKit/537.36 (KHTML, like Gecko) Chrome/71.0.3578.98 Safari/537.36" etag="tfC6BwMKW9h-QddZhQjK" version="12.1.3" type="github" pages="1">
  <diagram id="3RNgoS7mazbFAzdoAH3F" name="第 1 页">
    <mxGraphModel dx="1622" dy="799" grid="1" gridSize="10" guides="1" tooltips="1" connect="1" arrows="1" fold="1" page="1" pageScale="1" pageWidth="1169" pageHeight="1654" math="0" shadow="0">
      <root>
        <mxCell id="0"/>
        <mxCell id="1" parent="0"/>
        <mxCell id="g-xq8fiUKdF2ZnLSaSOa-61" value="" style="rounded=0;whiteSpace=wrap;html=1;strokeWidth=2;fillColor=none;" parent="1" vertex="1">
          <mxGeometry x="159.84922572544633" y="80" width="920" height="1120" as="geometry"/>
        </mxCell>
        <mxCell id="g-xq8fiUKdF2ZnLSaSOa-1" value="&lt;b&gt;&lt;font style=&quot;font-size: 20px&quot;&gt;MCU&lt;/font&gt;&lt;/b&gt;" style="rounded=0;whiteSpace=wrap;html=1;" parent="1" vertex="1">
          <mxGeometry x="280" y="120" width="120" height="80" as="geometry"/>
        </mxCell>
        <mxCell id="g-xq8fiUKdF2ZnLSaSOa-2" value="&lt;span style=&quot;font-size: 20px&quot;&gt;&lt;b&gt;系统|应用&lt;/b&gt;&lt;/span&gt;" style="rounded=0;whiteSpace=wrap;html=1;" parent="1" vertex="1">
          <mxGeometry x="800" y="121" width="120" height="78" as="geometry"/>
        </mxCell>
        <mxCell id="g-xq8fiUKdF2ZnLSaSOa-4" value="" style="endArrow=classic;html=1;entryX=0.5;entryY=0;entryDx=0;entryDy=0;entryPerimeter=0;" parent="1" target="g-xq8fiUKdF2ZnLSaSOa-56" edge="1">
          <mxGeometry width="50" height="50" relative="1" as="geometry">
            <mxPoint x="340" y="200" as="sourcePoint"/>
            <mxPoint x="340" y="1070" as="targetPoint"/>
          </mxGeometry>
        </mxCell>
        <mxCell id="g-xq8fiUKdF2ZnLSaSOa-5" value="" style="endArrow=classic;html=1;entryX=0.5;entryY=0;entryDx=0;entryDy=0;entryPerimeter=0;" parent="1" target="g-xq8fiUKdF2ZnLSaSOa-55" edge="1">
          <mxGeometry width="50" height="50" relative="1" as="geometry">
            <mxPoint x="859.5" y="200" as="sourcePoint"/>
            <mxPoint x="859.5" y="1070" as="targetPoint"/>
          </mxGeometry>
        </mxCell>
        <mxCell id="g-xq8fiUKdF2ZnLSaSOa-6" value="" style="shape=flexArrow;endArrow=classic;html=1;fillColor=#FF0000;strokeColor=#B20000;" parent="1" edge="1">
          <mxGeometry width="50" height="50" relative="1" as="geometry">
            <mxPoint x="270" y="280" as="sourcePoint"/>
            <mxPoint x="325" y="239.5" as="targetPoint"/>
          </mxGeometry>
        </mxCell>
        <mxCell id="g-xq8fiUKdF2ZnLSaSOa-7" value="&lt;b&gt;&lt;font style=&quot;font-size: 20px&quot; color=&quot;#ff0000&quot;&gt;ACC ON&lt;/font&gt;&lt;/b&gt;" style="text;html=1;resizable=0;points=[];autosize=1;align=left;verticalAlign=top;spacingTop=-4;" parent="1" vertex="1">
          <mxGeometry x="205" y="234.5" width="90" height="20" as="geometry"/>
        </mxCell>
        <mxCell id="g-xq8fiUKdF2ZnLSaSOa-8" value="" style="endArrow=classic;html=1;" parent="1" edge="1">
          <mxGeometry width="50" height="50" relative="1" as="geometry">
            <mxPoint x="340" y="960" as="sourcePoint"/>
            <mxPoint x="860" y="960" as="targetPoint"/>
          </mxGeometry>
        </mxCell>
        <mxCell id="g-xq8fiUKdF2ZnLSaSOa-9" value="" style="endArrow=classic;html=1;" parent="1" edge="1">
          <mxGeometry width="50" height="50" relative="1" as="geometry">
            <mxPoint x="340" y="240" as="sourcePoint"/>
            <mxPoint x="860" y="240" as="targetPoint"/>
          </mxGeometry>
        </mxCell>
        <mxCell id="g-xq8fiUKdF2ZnLSaSOa-10" value="" style="endArrow=classic;html=1;" parent="1" edge="1">
          <mxGeometry width="50" height="50" relative="1" as="geometry">
            <mxPoint x="860" y="879" as="sourcePoint"/>
            <mxPoint x="340" y="879" as="targetPoint"/>
          </mxGeometry>
        </mxCell>
        <mxCell id="g-xq8fiUKdF2ZnLSaSOa-38" value="&lt;font style=&quot;font-size: 18px&quot;&gt;通知MCU管脚拉低&lt;/font&gt;" style="text;html=1;resizable=0;points=[];align=center;verticalAlign=middle;labelBackgroundColor=#ffffff;" parent="g-xq8fiUKdF2ZnLSaSOa-10" vertex="1" connectable="0">
          <mxGeometry x="0.0529" relative="1" as="geometry">
            <mxPoint x="2.5" y="-20" as="offset"/>
          </mxGeometry>
        </mxCell>
        <mxCell id="g-xq8fiUKdF2ZnLSaSOa-11" value="" style="endArrow=classic;html=1;" parent="1" edge="1">
          <mxGeometry width="50" height="50" relative="1" as="geometry">
            <mxPoint x="340" y="799" as="sourcePoint"/>
            <mxPoint x="860" y="799" as="targetPoint"/>
          </mxGeometry>
        </mxCell>
        <mxCell id="g-xq8fiUKdF2ZnLSaSOa-12" value="" style="endArrow=classic;html=1;" parent="1" edge="1">
          <mxGeometry width="50" height="50" relative="1" as="geometry">
            <mxPoint x="340" y="720" as="sourcePoint"/>
            <mxPoint x="860" y="720" as="targetPoint"/>
          </mxGeometry>
        </mxCell>
        <mxCell id="g-xq8fiUKdF2ZnLSaSOa-13" value="" style="endArrow=classic;html=1;" parent="1" edge="1">
          <mxGeometry width="50" height="50" relative="1" as="geometry">
            <mxPoint x="860" y="474" as="sourcePoint"/>
            <mxPoint x="340" y="474" as="targetPoint"/>
          </mxGeometry>
        </mxCell>
        <mxCell id="g-xq8fiUKdF2ZnLSaSOa-14" value="" style="endArrow=classic;html=1;" parent="1" edge="1">
          <mxGeometry width="50" height="50" relative="1" as="geometry">
            <mxPoint x="860" y="400" as="sourcePoint"/>
            <mxPoint x="340" y="400" as="targetPoint"/>
          </mxGeometry>
        </mxCell>
        <mxCell id="g-xq8fiUKdF2ZnLSaSOa-15" value="" style="endArrow=classic;html=1;" parent="1" edge="1">
          <mxGeometry width="50" height="50" relative="1" as="geometry">
            <mxPoint x="860" y="320" as="sourcePoint"/>
            <mxPoint x="340" y="320" as="targetPoint"/>
          </mxGeometry>
        </mxCell>
        <mxCell id="g-xq8fiUKdF2ZnLSaSOa-17" value="&lt;div style=&quot;text-align: center&quot;&gt;&lt;span style=&quot;font-size: 18px&quot;&gt;通知MCU管脚拉高&lt;/span&gt;&lt;/div&gt;" style="text;html=1;resizable=0;points=[];autosize=1;align=left;verticalAlign=top;spacingTop=-4;" parent="1" vertex="1">
          <mxGeometry x="500" y="289" width="160" height="20" as="geometry"/>
        </mxCell>
        <mxCell id="g-xq8fiUKdF2ZnLSaSOa-18" value="&lt;font style=&quot;font-size: 18px&quot;&gt;上电、给系统开机信号(电压稳定)&lt;/font&gt;" style="text;html=1;resizable=0;points=[];autosize=1;align=left;verticalAlign=top;spacingTop=-4;" parent="1" vertex="1">
          <mxGeometry x="455" y="208" width="280" height="20" as="geometry"/>
        </mxCell>
        <mxCell id="g-xq8fiUKdF2ZnLSaSOa-20" value="&lt;span style=&quot;font-size: 18px&quot;&gt;OS发送开功放协议&lt;/span&gt;" style="text;html=1;resizable=0;points=[];autosize=1;align=left;verticalAlign=top;spacingTop=-4;" parent="1" vertex="1">
          <mxGeometry x="495" y="370" width="170" height="20" as="geometry"/>
        </mxCell>
        <mxCell id="g-xq8fiUKdF2ZnLSaSOa-21" value="&lt;font style=&quot;font-size: 18px&quot;&gt;应用发送心跳协议&lt;/font&gt;" style="text;html=1;resizable=0;points=[];autosize=1;align=left;verticalAlign=top;spacingTop=-4;" parent="1" vertex="1">
          <mxGeometry x="510" y="440" width="160" height="20" as="geometry"/>
        </mxCell>
        <mxCell id="g-xq8fiUKdF2ZnLSaSOa-22" value="(启动过程异常，ACC关闭后立即断开所有电源)" style="text;html=1;resizable=0;points=[];autosize=1;align=left;verticalAlign=top;spacingTop=-4;" parent="1" vertex="1">
          <mxGeometry x="460" y="474.5" width="290" height="10" as="geometry"/>
        </mxCell>
        <mxCell id="g-xq8fiUKdF2ZnLSaSOa-23" value="" style="shape=flexArrow;endArrow=classic;startArrow=classic;html=1;strokeWidth=2;endSize=6;targetPerimeterSpacing=0;fillColor=#d5e8d4;strokeColor=#82b366;" parent="1" edge="1">
          <mxGeometry width="50" height="50" relative="1" as="geometry">
            <mxPoint x="340" y="585" as="sourcePoint"/>
            <mxPoint x="860" y="585" as="targetPoint"/>
          </mxGeometry>
        </mxCell>
        <mxCell id="g-xq8fiUKdF2ZnLSaSOa-24" value="&lt;font style=&quot;font-size: 18px&quot;&gt;通信&lt;/font&gt;" style="text;html=1;resizable=0;points=[];autosize=1;align=left;verticalAlign=top;spacingTop=-4;" parent="1" vertex="1">
          <mxGeometry x="560" y="554.5" width="50" height="20" as="geometry"/>
        </mxCell>
        <mxCell id="g-xq8fiUKdF2ZnLSaSOa-25" value="" style="shape=flexArrow;endArrow=classic;html=1;fillColor=#FF0000;strokeColor=#B20000;" parent="1" edge="1">
          <mxGeometry width="50" height="50" relative="1" as="geometry">
            <mxPoint x="275" y="679.5" as="sourcePoint"/>
            <mxPoint x="330" y="709.5" as="targetPoint"/>
          </mxGeometry>
        </mxCell>
        <mxCell id="g-xq8fiUKdF2ZnLSaSOa-26" value="&lt;b&gt;&lt;font style=&quot;font-size: 20px&quot; color=&quot;#ff0000&quot;&gt;ACC OFF&lt;/font&gt;&lt;/b&gt;" style="text;html=1;resizable=0;points=[];autosize=1;align=left;verticalAlign=top;spacingTop=-4;" parent="1" vertex="1">
          <mxGeometry x="200" y="694.5" width="100" height="20" as="geometry"/>
        </mxCell>
        <mxCell id="g-xq8fiUKdF2ZnLSaSOa-27" value="&lt;font style=&quot;font-size: 18px&quot;&gt;上报ACC OFF&lt;/font&gt;" style="text;html=1;resizable=0;points=[];autosize=1;align=left;verticalAlign=top;spacingTop=-4;" parent="1" vertex="1">
          <mxGeometry x="515" y="694.5" width="130" height="20" as="geometry"/>
        </mxCell>
        <mxCell id="g-xq8fiUKdF2ZnLSaSOa-32" value="" style="curved=1;endArrow=classic;html=1;fillColor=#FF0000;" parent="1" edge="1">
          <mxGeometry width="50" height="50" relative="1" as="geometry">
            <mxPoint x="865" y="754.5" as="sourcePoint"/>
            <mxPoint x="865" y="584.5" as="targetPoint"/>
            <Array as="points">
              <mxPoint x="915" y="714.5"/>
              <mxPoint x="905" y="624.5"/>
            </Array>
          </mxGeometry>
        </mxCell>
        <mxCell id="g-xq8fiUKdF2ZnLSaSOa-33" value="" style="shape=flexArrow;endArrow=classic;html=1;fillColor=#FF0000;strokeColor=#B20000;" parent="1" edge="1">
          <mxGeometry width="50" height="50" relative="1" as="geometry">
            <mxPoint x="930" y="980" as="sourcePoint"/>
            <mxPoint x="870" y="937.5" as="targetPoint"/>
          </mxGeometry>
        </mxCell>
        <mxCell id="g-xq8fiUKdF2ZnLSaSOa-34" value="&lt;b&gt;&lt;font style=&quot;font-size: 20px&quot; color=&quot;#ff0000&quot;&gt;ACC ON&lt;/font&gt;&lt;/b&gt;" style="text;html=1;resizable=0;points=[];autosize=1;align=left;verticalAlign=top;spacingTop=-4;" parent="1" vertex="1">
          <mxGeometry x="910" y="937.5" width="90" height="20" as="geometry"/>
        </mxCell>
        <mxCell id="g-xq8fiUKdF2ZnLSaSOa-35" value="&lt;font style=&quot;font-size: 18px&quot;&gt;系统深度睡眠&lt;/font&gt;" style="text;html=1;resizable=0;points=[];autosize=1;align=left;verticalAlign=top;spacingTop=-4;" parent="1" vertex="1">
          <mxGeometry x="520" y="770" width="120" height="20" as="geometry"/>
        </mxCell>
        <mxCell id="g-xq8fiUKdF2ZnLSaSOa-36" value="" style="shape=curlyBracket;whiteSpace=wrap;html=1;rounded=1;" parent="1" vertex="1">
          <mxGeometry x="305" y="719.5" width="20" height="80" as="geometry"/>
        </mxCell>
        <mxCell id="g-xq8fiUKdF2ZnLSaSOa-37" value="&lt;font style=&quot;font-size: 18px&quot;&gt;10s&lt;/font&gt;" style="text;html=1;resizable=0;points=[];autosize=1;align=left;verticalAlign=top;spacingTop=-4;" parent="1" vertex="1">
          <mxGeometry x="275" y="744.5" width="40" height="20" as="geometry"/>
        </mxCell>
        <mxCell id="g-xq8fiUKdF2ZnLSaSOa-39" value="" style="shape=curlyBracket;whiteSpace=wrap;html=1;rounded=1;resizable=1;direction=west;" parent="1" vertex="1">
          <mxGeometry x="870" y="799.5" width="20" height="80" as="geometry"/>
        </mxCell>
        <mxCell id="g-xq8fiUKdF2ZnLSaSOa-40" value="&lt;font style=&quot;font-size: 18px&quot;&gt;&amp;lt; 30s&lt;/font&gt;" style="text;html=1;resizable=0;points=[];autosize=1;align=left;verticalAlign=top;spacingTop=-4;" parent="1" vertex="1">
          <mxGeometry x="895" y="827" width="60" height="20" as="geometry"/>
        </mxCell>
        <mxCell id="g-xq8fiUKdF2ZnLSaSOa-41" value="(超时30s，关机过程存在问题，断开所有电源)" style="text;html=1;resizable=0;points=[];autosize=1;align=left;verticalAlign=top;spacingTop=-4;" parent="1" vertex="1">
          <mxGeometry x="475" y="884.5" width="290" height="10" as="geometry"/>
        </mxCell>
        <mxCell id="g-xq8fiUKdF2ZnLSaSOa-42" value="" style="shape=curlyBracket;whiteSpace=wrap;html=1;rounded=1;" parent="1" vertex="1">
          <mxGeometry x="310" y="878" width="15" height="83" as="geometry"/>
        </mxCell>
        <mxCell id="g-xq8fiUKdF2ZnLSaSOa-43" value="&lt;font style=&quot;font-size: 18px&quot;&gt;30s&lt;/font&gt;" style="text;html=1;resizable=0;points=[];autosize=1;align=left;verticalAlign=top;spacingTop=-4;" parent="1" vertex="1">
          <mxGeometry x="275" y="907.5" width="40" height="20" as="geometry"/>
        </mxCell>
        <mxCell id="g-xq8fiUKdF2ZnLSaSOa-44" value="&lt;font style=&quot;font-size: 18px&quot;&gt;等待ACC信号&lt;/font&gt;" style="text;html=1;resizable=0;points=[];autosize=1;align=left;verticalAlign=top;spacingTop=-4;" parent="1" vertex="1">
          <mxGeometry x="530" y="927.5" width="130" height="20" as="geometry"/>
        </mxCell>
        <mxCell id="g-xq8fiUKdF2ZnLSaSOa-47" value="" style="curved=1;endArrow=classic;html=1;fillColor=#FF0000;" parent="1" edge="1">
          <mxGeometry width="50" height="50" relative="1" as="geometry">
            <mxPoint x="861.5" y="934.5" as="sourcePoint"/>
            <mxPoint x="890" y="240" as="targetPoint"/>
            <Array as="points">
              <mxPoint x="1041.5" y="834.5"/>
              <mxPoint x="1050" y="310"/>
            </Array>
          </mxGeometry>
        </mxCell>
        <mxCell id="g-xq8fiUKdF2ZnLSaSOa-49" value="" style="shape=flexArrow;endArrow=classic;html=1;fillColor=#FF0000;strokeColor=#B20000;" parent="1" edge="1">
          <mxGeometry width="50" height="50" relative="1" as="geometry">
            <mxPoint x="930" y="800" as="sourcePoint"/>
            <mxPoint x="873" y="759.4999999999998" as="targetPoint"/>
          </mxGeometry>
        </mxCell>
        <mxCell id="g-xq8fiUKdF2ZnLSaSOa-50" value="&lt;b&gt;&lt;font style=&quot;font-size: 20px&quot; color=&quot;#ff0000&quot;&gt;ACC ON&lt;/font&gt;&lt;/b&gt;" style="text;html=1;resizable=0;points=[];autosize=1;align=left;verticalAlign=top;spacingTop=-4;" parent="1" vertex="1">
          <mxGeometry x="910" y="754.5" width="90" height="20" as="geometry"/>
        </mxCell>
        <mxCell id="g-xq8fiUKdF2ZnLSaSOa-53" value="" style="shape=curlyBracket;whiteSpace=wrap;html=1;rounded=1;resizable=1;direction=west;" parent="1" vertex="1">
          <mxGeometry x="870" y="240" width="20" height="78" as="geometry"/>
        </mxCell>
        <mxCell id="g-xq8fiUKdF2ZnLSaSOa-54" value="&lt;font style=&quot;font-size: 18px&quot;&gt;&amp;lt; 60S&lt;/font&gt;" style="text;html=1;resizable=0;points=[];autosize=1;align=left;verticalAlign=top;spacingTop=-4;" parent="1" vertex="1">
          <mxGeometry x="895" y="269" width="60" height="20" as="geometry"/>
        </mxCell>
        <mxCell id="g-xq8fiUKdF2ZnLSaSOa-55" value="&lt;span style=&quot;font-size: 20px&quot;&gt;&lt;b&gt;保留系统供电&lt;br&gt;MCU休眠&lt;/b&gt;&lt;/span&gt;" style="strokeWidth=2;html=1;shape=mxgraph.flowchart.terminator;whiteSpace=wrap;" parent="1" vertex="1">
          <mxGeometry x="775" y="1100" width="170" height="70" as="geometry"/>
        </mxCell>
        <mxCell id="g-xq8fiUKdF2ZnLSaSOa-56" value="&lt;span style=&quot;font-size: 20px&quot;&gt;&lt;b&gt;断开所有电源&lt;br&gt;MCU休眠&lt;/b&gt;&lt;/span&gt;&lt;br&gt;" style="strokeWidth=2;html=1;shape=mxgraph.flowchart.terminator;whiteSpace=wrap;" parent="1" vertex="1">
          <mxGeometry x="250" y="1100" width="175" height="70" as="geometry"/>
        </mxCell>
        <mxCell id="g-xq8fiUKdF2ZnLSaSOa-57" value="" style="endArrow=classic;html=1;" parent="1" edge="1">
          <mxGeometry width="50" height="50" relative="1" as="geometry">
            <mxPoint x="340" y="980" as="sourcePoint"/>
            <mxPoint x="850" y="1070" as="targetPoint"/>
          </mxGeometry>
        </mxCell>
        <mxCell id="eALIiVt5pSt-O9s41uVX-2" value="(启动过程异常，ACC关闭后立即断开所有电源)" style="text;html=1;" parent="1" vertex="1">
          <mxGeometry x="445" y="318" width="300" height="30" as="geometry"/>
        </mxCell>
      </root>
    </mxGraphModel>
  </diagram>
</mxfile>
